<svg xmlns="http://www.w3.org/2000/svg" viewBox="0 0 120 120"><path fill="#fff" fill-rule="evenodd" d="M44.75 41 47.75 40.5 49.25 37.25 49.25 35.75 48 34.75 48 34.25 47 34 46.75 33 47.75 33 49 34 50.5 34.25 51.5 32.75 53.5 31.25 53.5 29.5 52.25 27.25 52.25 25.75 52.75 25.75 53 26.75 53.75 27.25 55.25 29.75 56.75 29.75 59.75 28.5 60.25 27 60.25 24.75 60.75 24.75 61.25 27.75 62 29 63.5 29 64.25 29.75 65.5 30 67.5 28.25 68 27.25 68.5 27.25 68.75 28 68 29 67.75 31 68.75 32.25 69.25 32.25 69.75 33.5 71.75 34.25 72.5 33.25 74.5 33 74.5 33.75 73 34.5 71.75 36.25 72.5 38 72.5 39.75 73.25 40.5 75.25 40.5 76.5 41 77 41.75 73.5 42 72.25 43.5 72 47.25 73.25 47.75 73.5 48.5 74.75 49.25 74.75 49.75 74 50 72.75 49 70.25 48.75 69.25 50 68.25 50.25 67.5 51.25 67.5 52.5 68.5 54.25 68.25 55.25 66.75 54.25 66 52.75 64.25 52.5 63.5 53.5 63.5 59 61.75 60.5 60.25 60.75 57.75 58.5 57.5 53 55.5 52.75 54 54.75 52.5 55.25 53.75 52.5 53.75 51 53.25 50.5 52.75 50.5 51.25 48.75 49 48.75 47.5 49.75 46.5 49.75 46.5 49 47 49 48.75 47 49.25 47 49.5 45.75 48.25 42.5 47.75 42 44.75 41.75ZM58 99 58.5 63.25 62.25 63 62.75 63.5 62.75 102 60.75 103 59.5 102.75 58 101ZM25.5 39.5 26.25 39 29.25 38.75 31.75 37.75 32.75 36.5 35.75 35 39 31 40.75 23.75 39.25 17.25 40 17 41.25 17.75 43.75 18.25 48 18.25 52.75 17 55.75 15.25 57 13.75 57.5 13.75 59 11.25 59.75 10.75 60 9.25 61 9 62 11 63.75 12.5 64.25 13.75 64.75 13.75 66.25 15.5 67.75 15.75 68.75 17 74 18.25 79.75 18 80.5 17.25 81.75 17.25 82 18 80.75 21.75 80.75 25.5 82 30.5 82.75 31 83.25 32.75 85.25 34.75 87.75 36 89.75 37.75 91.75 38.75 95.5 39 95.75 40 93 41 92.5 41.75 91 42.5 85 48.5 84.75 50.25 84 51 83.75 52.5 81.75 56.75 81.5 64 82.75 67.5 82.5 69 80.5 66.5 80 65 79 64.5 78.75 63.25 77 61.75 76.25 60 75.5 59.5 75.75 58 76.5 57 77 57 79.25 52.75 80 52.25 82 45.5 82 37.75 81.25 36 81 33.75 77 26.25 76.25 26 76.25 25.5 72.75 22.25 71.25 21.75 69.25 20.25 65.5 19 57 18.75 56 19.25 54.25 19.25 50.25 21 49.25 22 48.25 22.25 45.75 25 45 25.25 43.75 27.5 42.25 29 40 34 40 35.5 39 39.25 39 44.75 39.75 46.75 40 49.25 40.5 49.75 41.25 52.5 42 53 43.75 56.5 45.5 58 45.75 59.25 42.5 63.25 42 64.5 41 65.25 39.5 68.25 38.25 69 38.25 68 39.5 64.75 39.5 57.25 36 48.25 35.5 47.25 34 46.5 33.75 45.75 33 45.5 30.5 42.75 29 42 28.25 41 26.25 40.5ZM82.25 1.75 84.75 1.5 85.25 2 83.25 2.25ZM56.5 107.5 57 104 58 104 59.5 105.25 62 105 62.25 104.5 64 104 64.5 105 64.75 109.75 64 111.5 61.5 112.75 59.5 112.75 58.75 111.75 56.75 110.75ZM101.5 1.75 104 1.5 107.75 2 103.75 2.25Z"/></svg>
